<svg width="37" height="40" viewBox="0 0 37 40" fill="none" xmlns="http://www.w3.org/2000/svg">
<path d="M16.5952 30.8906C16.2917 30.498 16.1664 29.9927 16.2516 29.5042C16.3393 29.0003 16.6334 28.5793 17.0377 28.3186C16.8402 27.9819 16.7487 27.5888 16.783 27.1946C16.8524 26.397 17.3965 25.7583 18.1257 25.5418C17.9181 25.1872 17.8271 24.7716 17.8767 24.3588C17.9463 23.7773 18.2763 23.284 18.7406 22.987C18.5069 22.6799 18.3663 22.2983 18.3663 21.8835C18.3663 21.479 18.5002 21.1043 18.7251 20.8001C18.6616 20.8033 18.5974 20.8052 18.5322 20.8052C17.9258 20.8052 17.3699 20.6547 16.8811 20.3625C16.7802 20.7399 16.6381 21.1621 16.4378 21.5853C15.9736 22.5671 15.3283 23.2938 14.5301 23.7528L11.5984 34.5801L16.0408 36.4942L17.4004 31.473C17.0849 31.3593 16.8033 31.1597 16.5952 30.8906Z" fill="#FF6600"/>
<path d="M30.155 10.445L28.5993 10.0329L28.5988 10.0348L26.6514 9.51915L26.239 11.0716C26.0691 11.4859 24.8313 11.5124 24.3869 11.3925C23.5072 11.155 22.7948 10.575 22.891 10.1086L23.2865 8.61983L19.8606 7.74288C15.8448 6.67942 11.726 9.06751 10.6609 13.077L12.1792 13.4791C13.4084 8.9395 18.3469 10.7681 17.8856 12.4719L17.4664 14.0204L17.2117 14.9613L17.4906 15.3024L20.4644 18.9827L20.5016 19.0288L21.2316 16.3331L21.2374 16.3347L21.5584 15.1263L21.5588 15.1251L21.6329 14.8459C21.7809 14.3932 22.6418 14.2293 23.5674 14.4791C24.0118 14.599 25.0729 15.2378 25.0149 15.6817L24.6025 17.2342L28.1054 18.1619L30.1548 10.4472L30.155 10.445Z" fill="#FF6600"/>
<path d="M22.5156 20.6345C22.4941 20.6345 22.4724 20.6352 22.4505 20.6364C21.7929 20.6753 20.9695 20.7238 20.3004 20.763C20.2439 20.7663 20.1865 20.7698 20.1324 20.7729C19.5434 20.8071 19.0835 21.2942 19.0835 21.8833C19.0835 22.2153 19.2293 22.5102 19.4576 22.7131C19.5569 22.6969 19.6582 22.6871 19.7617 22.6871C19.7676 22.6871 19.7735 22.6876 19.7793 22.6876C19.8121 22.688 19.845 22.6887 19.8781 22.6907C20.5589 22.732 21.4333 22.7847 22.1594 22.8282L22.6087 22.7888C23.1668 22.7399 23.595 22.2731 23.595 21.7138C23.5952 21.1144 23.1077 20.6345 22.5156 20.6345Z" fill="#FF6600"/>
<path d="M22.2946 23.5534C22.2541 23.551 22.2108 23.5485 22.1693 23.5459C21.433 23.5018 20.5321 23.4476 19.8345 23.4053C19.8101 23.4038 19.7859 23.4031 19.7618 23.4031C19.7006 23.4031 19.6407 23.4089 19.5816 23.418C19.4914 23.432 19.4043 23.4556 19.3217 23.4889C18.9333 23.6453 18.6417 24.0023 18.5888 24.4437C18.5404 24.8471 18.7022 25.2229 18.9834 25.4699C18.9977 25.4703 19.0114 25.4708 19.0258 25.4711C19.7137 25.4904 20.5326 25.5131 21.1924 25.5312C21.5417 25.5408 21.8791 25.6516 22.1671 25.8411L22.1898 25.8417C22.2022 25.8421 22.2143 25.8423 22.2265 25.8423C22.805 25.8423 23.2959 25.4104 23.365 24.8328C23.4433 24.1783 22.9537 23.593 22.2946 23.5534Z" fill="#FF6600"/>
<path d="M21.1723 26.2467C20.4554 26.2271 19.5533 26.2022 18.8329 26.1819C18.8017 26.181 18.7694 26.1801 18.7389 26.1791C18.7291 26.1788 18.7184 26.1786 18.7086 26.1783C18.6972 26.1779 18.6859 26.1777 18.6745 26.1777C18.0634 26.1777 17.5504 26.6447 17.4972 27.2562C17.4712 27.5547 17.5589 27.8348 17.7224 28.0569C17.8131 28.0426 17.9053 28.034 17.9997 28.034C18.0669 28.034 18.135 28.038 18.2022 28.0455C18.2416 28.05 18.2838 28.0548 18.3245 28.0595C18.9635 28.1323 19.7599 28.2224 20.3937 28.294C20.6458 28.3225 20.8862 28.4075 21.1003 28.5369H21.1418C21.7365 28.5364 22.2322 28.0822 22.2838 27.4907C22.3158 27.122 22.1695 26.7808 21.9183 26.5492C21.722 26.3687 21.4618 26.2546 21.1723 26.2467Z" fill="#FF6600"/>
<path d="M20.874 29.2533C20.7224 29.1203 20.5301 29.0302 20.3133 29.0057C20.0171 28.9722 19.6845 28.9347 19.3493 28.8967C18.927 28.8488 18.5006 28.8005 18.1355 28.7588C18.1308 28.7583 18.1257 28.7576 18.121 28.7571C18.089 28.7535 18.0571 28.7525 18.0254 28.7516C18.0169 28.7514 18.0083 28.7502 17.9999 28.7502C17.8307 28.7502 17.6689 28.7915 17.5245 28.8643C17.2355 29.0102 17.0175 29.2853 16.9582 29.6263C16.8717 30.1239 17.1481 30.5946 17.5879 30.7805C17.6882 30.8228 17.7969 30.8507 17.9118 30.8603L20.1108 31.0461C20.1403 31.0485 20.1694 31.0499 20.1983 31.0499C20.6929 31.0499 21.1232 30.6946 21.2092 30.2C21.2731 29.8331 21.1332 29.4806 20.874 29.2533Z" fill="#FF6600"/>
<path d="M13.601 24.1469L13.7118 23.734L13.8269 23.3049C14.2194 23.1342 14.5508 22.9014 14.8334 22.6334C16.2774 21.2637 16.405 18.9446 16.405 18.9446C17.0377 19.8409 17.8385 20.0894 18.5323 20.0894C19.3964 20.0894 20.0947 19.7035 20.0947 19.7035L16.7482 15.5615L16.7355 15.5457L12.3399 16.7335L9.15423 22.6401L8.77926 22.8397L8.40429 23.0392L5.08643 24.8057V25.497C5.08643 27.808 5.91977 29.981 7.35589 31.6716L12.2648 29.1277L13.601 24.1469Z" fill="#FF6600"/>
<path d="M30.4815 5.04648V0.466778H27.9394V3.9751L18.5234 0L8.83264 4.09107L0 7.73807L0.724435 9.48698L2.84639 8.61089V9.22219V20.145V25.497C2.84639 25.6627 2.8507 25.8277 2.85759 25.9923C2.96202 28.4814 3.84982 30.8225 5.32747 32.7229C6.52354 34.261 8.1051 35.5108 9.97134 36.315L11.0078 36.7616L15.4503 38.6757L18.5234 40L27.0755 36.315C31.3999 34.4516 34.2005 30.1995 34.2005 25.497V20.145V9.22219V8.63016L36.2757 9.48698L37 7.73807L30.4815 5.04648ZM31.9603 9.22219V20.145V25.497C31.9603 29.3102 29.6945 32.7504 26.1879 34.2614L18.5234 37.5639L16.0408 36.4943L11.5984 34.5802L10.8588 34.2615C9.47729 33.6662 8.28966 32.7707 7.35602 31.6718C5.91973 29.9812 5.08656 27.8082 5.08656 25.4972V24.8059V20.1451V9.22237V8.1011L18.5234 2.42869L27.0669 6.03543L30.1796 7.34957V7.3494L31.9605 8.1011V9.22219H31.9603Z" fill="#FF6600"/>
</svg>
